STARTFONT 2.1
FONT -FontForge-Montserrat Alternates-Book-R-Normal--22-210-75-75-P-127-ISO10646-1
SIZE 21 75 75
FONTBOUNDINGBOX 27 24 -2 -4
COMMENT "Generated by fontforge, http://fontforge.sourceforge.net"
COMMENT "Copyright 2011 The Montserrat Project Authors (https://github.com/JulietaUla/Montserrat)"
STARTPROPERTIES 39
FOUNDRY "FontForge"
FAMILY_NAME "Montserrat Alternates"
WEIGHT_NAME "Book"
SLANT "R"
SETWIDTH_NAME "Normal"
ADD_STYLE_NAME ""
PIXEL_SIZE 22
POINT_SIZE 210
RESOLUTION_X 75
RESOLUTION_Y 75
SPACING "P"
AVERAGE_WIDTH 127
CHARSET_REGISTRY "ISO10646"
CHARSET_ENCODING "1"
FONTNAME_REGISTRY ""
CHARSET_COLLECTIONS "ISO10646-1"
FONT_NAME "MontserratAlternates-Regular"
FACE_NAME "Montserrat Alternates Regular"
COPYRIGHT "Copyright 2011 The Montserrat Project Authors (https://github.com/JulietaUla/Montserrat)"
FONT_VERSION "7.200"
FONT_ASCENT 18
FONT_DESCENT 4
UNDERLINE_POSITION -2
UNDERLINE_THICKNESS 2
X_HEIGHT 11
CAP_HEIGHT 15
RAW_ASCENT 800
RAW_DESCENT 200
NORM_SPACE 6
RELATIVE_WEIGHT 40
RELATIVE_SETWIDTH 50
SUPERSCRIPT_X 0
SUPERSCRIPT_Y 7
SUPERSCRIPT_SIZE 13
SUBSCRIPT_X 0
SUBSCRIPT_Y 1
SUBSCRIPT_SIZE 13
AVG_LOWERCASE_WIDTH 129
AVG_UPPERCASE_WIDTH 163
ENDPROPERTIES
CHARS 95
STARTCHAR space
ENCODING 32
SWIDTH 262 0
DWIDTH 6 0
BBX 1 1 0 0
BITMAP
00
ENDCHAR
STARTCHAR exclam
ENCODING 33
SWIDTH 260 0
DWIDTH 6 0
BBX 2 16 2 0
BITMAP
C0
C0
C0
C0
C0
C0
C0
C0
C0
80
80
00
00
00
C0
C0
ENDCHAR
STARTCHAR quotedbl
ENCODING 34
SWIDTH 373 0
DWIDTH 8 0
BBX 5 6 2 10
BITMAP
98
98
98
98
98
98
ENDCHAR
STARTCHAR numbersign
ENCODING 35
SWIDTH 696 0
DWIDTH 15 0
BBX 14 16 1 0
BITMAP
0820
0820
0820
0860
FFFC
1840
1840
1040
1040
1040
FFF8
10C0
10C0
1080
3080
2080
ENDCHAR
STARTCHAR dollar
ENCODING 36
SWIDTH 615 0
DWIDTH 14 0
BBX 12 21 1 -2
BITMAP
0400
0400
0400
1F80
3DE0
6420
C400
C400
4400
7400
3E00
07C0
04E0
0460
0430
0420
C460
75C0
3F80
0400
0400
ENDCHAR
STARTCHAR percent
ENCODING 37
SWIDTH 829 0
DWIDTH 18 0
BBX 16 16 1 0
BITMAP
380C
6C08
C610
8230
8220
8240
86C0
4480
391E
0323
0221
0441
0461
0821
1833
301E
ENDCHAR
STARTCHAR ampersand
ENCODING 38
SWIDTH 669 0
DWIDTH 15 0
BBX 13 16 1 0
BITMAP
0F00
1980
3080
20C0
3080
1180
1E00
1C00
3600
6318
C190
C0F0
C060
C070
71D8
1F08
ENDCHAR
STARTCHAR quotesingle
ENCODING 39
SWIDTH 202 0
DWIDTH 4 0
BBX 1 6 2 10
BITMAP
80
80
80
80
80
80
ENDCHAR
STARTCHAR parenleft
ENCODING 40
SWIDTH 329 0
DWIDTH 7 0
BBX 4 21 2 -4
BITMAP
10
30
20
60
60
40
40
C0
C0
C0
C0
C0
C0
C0
40
40
60
60
20
30
10
ENDCHAR
STARTCHAR parenright
ENCODING 41
SWIDTH 329 0
DWIDTH 7 0
BBX 4 21 1 -4
BITMAP
C0
40
60
60
20
20
30
30
30
30
30
30
30
30
30
20
20
60
60
40
C0
ENDCHAR
STARTCHAR asterisk
ENCODING 42
SWIDTH 386 0
DWIDTH 8 0
BBX 8 8 0 9
BITMAP
08
08
EB
3C
3C
EB
08
08
ENDCHAR
STARTCHAR plus
ENCODING 43
SWIDTH 575 0
DWIDTH 13 0
BBX 9 10 2 3
BITMAP
0800
0800
0800
0800
0800
FF80
0800
0800
0800
0800
ENDCHAR
STARTCHAR comma
ENCODING 44
SWIDTH 212 0
DWIDTH 5 0
BBX 3 6 1 -3
BITMAP
C0
E0
40
40
40
80
ENDCHAR
STARTCHAR hyphen
ENCODING 45
SWIDTH 382 0
DWIDTH 8 0
BBX 6 1 1 6
BITMAP
FC
ENDCHAR
STARTCHAR period
ENCODING 46
SWIDTH 212 0
DWIDTH 5 0
BBX 3 2 1 0
BITMAP
E0
C0
ENDCHAR
STARTCHAR slash
ENCODING 47
SWIDTH 335 0
DWIDTH 7 0
BBX 9 22 -1 -2
BITMAP
0080
0180
0100
0100
0300
0200
0200
0600
0400
0400
0C00
0800
0800
1800
1000
1000
3000
2000
2000
6000
4000
C000
ENDCHAR
STARTCHAR zero
ENCODING 48
SWIDTH 662 0
DWIDTH 15 0
BBX 12 16 1 0
BITMAP
0F80
39C0
3060
6030
4030
C010
C010
C010
C010
C010
C010
4030
6030
3060
39C0
0F80
ENDCHAR
STARTCHAR one
ENCODING 49
SWIDTH 361 0
DWIDTH 8 0
BBX 5 16 0 0
BITMAP
F8
08
08
08
08
08
08
08
08
08
08
08
08
08
08
08
ENDCHAR
STARTCHAR two
ENCODING 50
SWIDTH 568 0
DWIDTH 13 0
BBX 12 16 0 0
BITMAP
1F80
79C0
C060
0060
0060
0060
0060
00C0
0180
0300
0600
0C00
1800
3000
6000
7FF0
ENDCHAR
STARTCHAR three
ENCODING 51
SWIDTH 564 0
DWIDTH 12 0
BBX 11 16 0 0
BITMAP
7FE0
0040
00C0
0180
0300
0200
0600
0F80
01C0
0060
0020
0020
0020
C060
71C0
1F80
ENDCHAR
STARTCHAR four
ENCODING 52
SWIDTH 661 0
DWIDTH 15 0
BBX 13 16 1 0
BITMAP
00C0
0180
0300
0600
0600
0C00
1800
1040
3040
6040
C040
FFF8
0040
0040
0040
0040
ENDCHAR
STARTCHAR five
ENCODING 53
SWIDTH 566 0
DWIDTH 12 0
BBX 12 16 0 0
BITMAP
3FE0
3000
3000
3000
2000
2000
2000
3F80
01E0
0060
0030
0030
0020
4060
F9C0
1F80
ENDCHAR
STARTCHAR six
ENCODING 54
SWIDTH 609 0
DWIDTH 13 0
BBX 12 16 1 0
BITMAP
0FC0
1CE0
3000
6000
4000
C000
C000
CF80
F8E0
E060
C030
4030
6030
6060
39C0
0F80
ENDCHAR
STARTCHAR seven
ENCODING 55
SWIDTH 589 0
DWIDTH 13 0
BBX 11 16 1 0
BITMAP
FFE0
8060
8040
80C0
00C0
0180
0180
0100
0300
0200
0600
0600
0C00
0C00
1800
1800
ENDCHAR
STARTCHAR eight
ENCODING 56
SWIDTH 638 0
DWIDTH 14 0
BBX 12 16 1 0
BITMAP
1F80
39C0
6060
4020
4020
6060
70E0
1F80
70E0
4030
C030
C030
C030
4020
79E0
1F80
ENDCHAR
STARTCHAR nine
ENCODING 57
SWIDTH 609 0
DWIDTH 13 0
BBX 11 16 1 0
BITMAP
3F00
7380
C0C0
8040
8060
8060
C0E0
61A0
3F20
0020
0060
0060
0040
00C0
6780
7E00
ENDCHAR
STARTCHAR colon
ENCODING 58
SWIDTH 212 0
DWIDTH 5 0
BBX 3 11 1 0
BITMAP
E0
C0
00
00
00
00
00
00
00
E0
C0
ENDCHAR
STARTCHAR semicolon
ENCODING 59
SWIDTH 212 0
DWIDTH 5 0
BBX 3 14 1 -3
BITMAP
E0
C0
00
00
00
00
00
00
C0
E0
40
40
40
80
ENDCHAR
STARTCHAR less
ENCODING 60
SWIDTH 575 0
DWIDTH 13 0
BBX 9 9 2 3
BITMAP
0180
0700
3C00
E000
C000
7000
1E00
0380
0080
ENDCHAR
STARTCHAR equal
ENCODING 61
SWIDTH 575 0
DWIDTH 13 0
BBX 9 6 2 5
BITMAP
FF80
0000
0000
0000
0000
FF80
ENDCHAR
STARTCHAR greater
ENCODING 62
SWIDTH 575 0
DWIDTH 13 0
BBX 9 9 2 3
BITMAP
8000
7000
1C00
0380
0180
0700
3800
E000
8000
ENDCHAR
STARTCHAR question
ENCODING 63
SWIDTH 567 0
DWIDTH 12 0
BBX 11 16 0 0
BITMAP
1F00
71C0
C060
0060
0060
0060
00C0
0180
0300
0200
0600
0000
0000
0000
0600
0600
ENDCHAR
STARTCHAR at
ENCODING 64
SWIDTH 1033 0
DWIDTH 23 0
BBX 21 20 1 -4
BITMAP
01FC00
078F00
1C0180
300040
20F320
639F30
420710
C60310
840318
840318
840318
840318
C60310
420710
639DB0
20F1E0
300000
1C0000
078E00
01F800
ENDCHAR
STARTCHAR A
ENCODING 65
SWIDTH 801 0
DWIDTH 18 0
BBX 13 16 2 0
BITMAP
0FC0
3CE0
2030
6018
4018
C008
C008
C008
C008
C008
FFF8
C008
C008
C008
C008
C008
ENDCHAR
STARTCHAR B
ENCODING 66
SWIDTH 754 0
DWIDTH 17 0
BBX 12 16 3 0
BITMAP
FF80
81E0
8060
8030
8030
8020
80E0
FF80
80E0
8030
8010
8010
8010
8030
80E0
FFC0
ENDCHAR
STARTCHAR C
ENCODING 67
SWIDTH 719 0
DWIDTH 16 0
BBX 14 16 1 0
BITMAP
07E0
1E38
380C
6000
6000
C000
C000
C000
C000
C000
C000
6000
6000
380C
1E38
07E0
ENDCHAR
STARTCHAR D
ENCODING 68
SWIDTH 826 0
DWIDTH 18 0
BBX 14 16 3 0
BITMAP
FF80
81E0
8030
8018
8008
800C
800C
800C
800C
800C
800C
8008
8018
8030
81E0
FF80
ENDCHAR
STARTCHAR E
ENCODING 69
SWIDTH 634 0
DWIDTH 14 0
BBX 13 16 1 0
BITMAP
0FC0
38F0
6010
6000
6000
6000
3000
1FC0
7000
4000
C000
C000
C000
6010
38F8
1FC0
ENDCHAR
STARTCHAR F
ENCODING 70
SWIDTH 602 0
DWIDTH 13 0
BBX 11 16 2 0
BITMAP
0FC0
38E0
6020
4000
C000
C000
C000
C000
FF80
C000
C000
C000
C000
C000
C000
C000
ENDCHAR
STARTCHAR G
ENCODING 71
SWIDTH 773 0
DWIDTH 17 0
BBX 14 16 1 0
BITMAP
07E0
1E38
380C
6000
6000
4000
C000
C000
C00C
C00C
C00C
600C
600C
300C
1E7C
07EC
ENDCHAR
STARTCHAR H
ENCODING 72
SWIDTH 813 0
DWIDTH 18 0
BBX 12 16 3 0
BITMAP
8010
8010
8010
8010
8010
8010
8010
FFF0
8010
8010
8010
8010
8010
8010
8010
8010
ENDCHAR
STARTCHAR I
ENCODING 73
SWIDTH 445 0
DWIDTH 10 0
BBX 8 16 1 0
BITMAP
FF
18
18
18
18
18
18
18
18
18
18
18
18
18
18
FF
ENDCHAR
STARTCHAR J
ENCODING 74
SWIDTH 500 0
DWIDTH 11 0
BBX 9 18 0 -2
BITMAP
7F80
0180
0180
0180
0180
0180
0180
0180
0180
0180
0180
0180
0180
0180
0180
8100
C300
7E00
ENDCHAR
STARTCHAR K
ENCODING 75
SWIDTH 711 0
DWIDTH 16 0
BBX 13 16 3 0
BITMAP
8030
8060
80C0
8180
8300
8600
8C00
9C00
BC00
E600
C300
8180
80C0
80C0
8060
8038
ENDCHAR
STARTCHAR L
ENCODING 76
SWIDTH 589 0
DWIDTH 13 0
BBX 10 16 3 0
BITMAP
8000
8000
8000
8000
8000
8000
8000
8000
8000
8000
8000
8000
8000
8000
8000
FFC0
ENDCHAR
STARTCHAR M
ENCODING 77
SWIDTH 1226 0
DWIDTH 27 0
BBX 22 16 3 0
BITMAP
9F07E0
B1CE70
C07818
C07018
803008
80200C
80200C
80200C
80200C
80200C
80200C
80200C
80200C
80200C
80200C
80200C
ENDCHAR
STARTCHAR N
ENCODING 78
SWIDTH 799 0
DWIDTH 18 0
BBX 12 16 3 0
BITMAP
8F80
B9C0
E060
C030
8030
8010
8010
8010
8010
8010
8010
8010
8010
8010
8010
8010
ENDCHAR
STARTCHAR O
ENCODING 79
SWIDTH 839 0
DWIDTH 18 0
BBX 16 16 1 0
BITMAP
07E0
1E78
380C
6006
6003
C003
C001
C001
C001
C001
C003
6003
6006
380C
1E78
07E0
ENDCHAR
STARTCHAR P
ENCODING 80
SWIDTH 718 0
DWIDTH 16 0
BBX 12 16 3 0
BITMAP
FF00
81C0
8060
8060
8020
8030
8030
8020
8060
80C0
FF80
8000
8000
8000
8000
8000
ENDCHAR
STARTCHAR Q
ENCODING 81
SWIDTH 839 0
DWIDTH 18 0
BBX 16 19 1 -3
BITMAP
07E0
1E78
380C
6006
6003
4003
C001
C001
C001
C001
C003
6183
6186
318C
1DB8
07F0
0180
0180
0180
ENDCHAR
STARTCHAR R
ENCODING 82
SWIDTH 723 0
DWIDTH 16 0
BBX 12 16 3 0
BITMAP
FF00
81C0
8060
8060
8020
8030
8030
8020
8060
80C0
FF80
8100
8180
80C0
8060
8030
ENDCHAR
STARTCHAR S
ENCODING 83
SWIDTH 615 0
DWIDTH 14 0
BBX 12 16 1 0
BITMAP
1F80
39E0
6020
C000
C000
4000
7000
3E00
07C0
00E0
0060
0030
0020
C060
71C0
1F80
ENDCHAR
STARTCHAR T
ENCODING 84
SWIDTH 581 0
DWIDTH 13 0
BBX 13 16 0 0
BITMAP
1FC0
F2F0
8218
0200
0200
0200
0200
0200
0200
0200
0200
0200
0200
0200
0200
0200
ENDCHAR
STARTCHAR U
ENCODING 85
SWIDTH 795 0
DWIDTH 17 0
BBX 13 16 2 0
BITMAP
C018
C018
C018
C018
C018
C018
C018
C018
C018
C018
C018
4018
6018
6038
38F8
0F98
ENDCHAR
STARTCHAR V
ENCODING 86
SWIDTH 698 0
DWIDTH 15 0
BBX 15 16 0 0
BITMAP
C006
4006
6004
200C
3008
3018
1818
1830
0830
0C20
0460
0640
06C0
03C0
0380
0180
ENDCHAR
STARTCHAR W
ENCODING 87
SWIDTH 1196 0
DWIDTH 26 0
BBX 22 16 2 0
BITMAP
C0300C
C0300C
C0300C
C0300C
C0300C
C0300C
C0300C
C0300C
C0300C
C0300C
C0300C
40300C
60300C
607818
39CE70
1F87E0
ENDCHAR
STARTCHAR X
ENCODING 88
SWIDTH 656 0
DWIDTH 14 0
BBX 14 16 0 0
BITMAP
600C
3018
3030
1860
0C40
04C0
0780
0300
0380
0680
0CC0
0860
1830
3030
6018
E00C
ENDCHAR
STARTCHAR Y
ENCODING 89
SWIDTH 788 0
DWIDTH 17 0
BBX 13 18 2 -2
BITMAP
C018
C018
C018
C018
C018
C018
C018
C018
4018
6038
3078
1FD8
0018
0018
0010
4030
7060
1FC0
ENDCHAR
STARTCHAR Z
ENCODING 90
SWIDTH 661 0
DWIDTH 15 0
BBX 13 16 1 0
BITMAP
FFF0
0030
0060
0040
00C0
0180
0300
7FE0
0600
0C00
1800
1000
3000
6000
C000
FFF8
ENDCHAR
STARTCHAR bracketleft
ENCODING 91
SWIDTH 318 0
DWIDTH 7 0
BBX 4 21 3 -4
BITMAP
F0
80
80
80
80
80
80
80
80
80
80
80
80
80
80
80
80
80
80
80
F0
ENDCHAR
STARTCHAR backslash
ENCODING 92
SWIDTH 335 0
DWIDTH 7 0
BBX 9 22 -1 -2
BITMAP
C000
4000
4000
6000
2000
2000
3000
1000
1000
1800
0800
0800
0C00
0400
0400
0600
0200
0200
0300
0100
0100
0180
ENDCHAR
STARTCHAR bracketright
ENCODING 93
SWIDTH 318 0
DWIDTH 7 0
BBX 4 21 0 -4
BITMAP
F0
10
10
10
10
10
10
10
10
10
10
10
10
10
10
10
10
10
10
10
F0
ENDCHAR
STARTCHAR asciicircum
ENCODING 94
SWIDTH 576 0
DWIDTH 13 0
BBX 9 10 2 3
BITMAP
0800
1800
1400
3400
2600
2200
6200
4100
C100
8180
ENDCHAR
STARTCHAR underscore
ENCODING 95
SWIDTH 500 0
DWIDTH 11 0
BBX 11 1 0 -1
BITMAP
FFE0
ENDCHAR
STARTCHAR grave
ENCODING 96
SWIDTH 600 0
DWIDTH 13 0
BBX 5 3 3 13
BITMAP
E0
30
18
ENDCHAR
STARTCHAR a
ENCODING 97
SWIDTH 678 0
DWIDTH 15 0
BBX 12 12 1 0
BITMAP
1F30
39B0
6070
C030
C030
C030
C030
C030
C030
6070
39F0
1F30
ENDCHAR
STARTCHAR b
ENCODING 98
SWIDTH 678 0
DWIDTH 15 0
BBX 12 17 2 0
BITMAP
C000
C000
C000
C000
C000
CF80
F9C0
E060
C020
C030
C030
C030
C030
C020
E060
F9C0
CF80
ENDCHAR
STARTCHAR c
ENCODING 99
SWIDTH 563 0
DWIDTH 12 0
BBX 11 12 1 0
BITMAP
1F00
39C0
6060
C000
C000
C000
C000
C000
C000
6060
39C0
1F00
ENDCHAR
STARTCHAR d
ENCODING 100
SWIDTH 678 0
DWIDTH 15 0
BBX 12 17 1 0
BITMAP
0030
0030
0030
0030
0030
1F30
39B0
6070
C030
C030
C030
C030
C030
C030
6070
39F0
1F30
ENDCHAR
STARTCHAR e
ENCODING 101
SWIDTH 604 0
DWIDTH 13 0
BBX 11 12 1 0
BITMAP
1F00
39C0
6040
C060
C020
C3E0
FE00
C000
C000
6040
39E0
1F80
ENDCHAR
STARTCHAR f
ENCODING 102
SWIDTH 327 0
DWIDTH 7 0
BBX 6 17 2 0
BITMAP
3C
64
C0
C0
C0
F8
C0
C0
C0
C0
C0
C0
C0
C0
C0
C0
C0
ENDCHAR
STARTCHAR g
ENCODING 103
SWIDTH 686 0
DWIDTH 15 0
BBX 12 16 1 -4
BITMAP
1F30
39F0
6070
C030
C030
C030
C030
C030
C030
6070
39F0
1F30
0030
4020
79E0
1F80
ENDCHAR
STARTCHAR h
ENCODING 104
SWIDTH 677 0
DWIDTH 15 0
BBX 11 17 2 0
BITMAP
C000
C000
C000
C000
C000
CF00
F9C0
E0C0
C060
C060
C060
C060
C060
C060
C060
C060
C060
ENDCHAR
STARTCHAR i
ENCODING 105
SWIDTH 269 0
DWIDTH 6 0
BBX 2 16 2 0
BITMAP
C0
C0
00
00
C0
C0
C0
C0
C0
C0
C0
C0
C0
C0
C0
C0
ENDCHAR
STARTCHAR j
ENCODING 106
SWIDTH 274 0
DWIDTH 6 0
BBX 6 20 -2 -4
BITMAP
0C
0C
00
00
0C
0C
0C
0C
0C
0C
0C
0C
0C
0C
0C
0C
0C
0C
8C
F8
ENDCHAR
STARTCHAR k
ENCODING 107
SWIDTH 601 0
DWIDTH 13 0
BBX 11 17 2 0
BITMAP
C000
C000
C000
C000
C000
C0E0
C180
C300
C600
CC00
DC00
F600
E300
C300
C180
C0C0
C060
ENDCHAR
STARTCHAR l
ENCODING 108
SWIDTH 309 0
DWIDTH 7 0
BBX 5 17 2 0
BITMAP
C0
C0
C0
C0
C0
C0
C0
C0
C0
C0
C0
C0
C0
C0
C0
68
38
ENDCHAR
STARTCHAR m
ENCODING 109
SWIDTH 1061 0
DWIDTH 23 0
BBX 19 12 2 0
BITMAP
CF0F80
F999C0
E0F060
C06060
C06020
C06020
C06020
C06020
C06020
C06020
C06020
C06020
ENDCHAR
STARTCHAR n
ENCODING 110
SWIDTH 677 0
DWIDTH 15 0
BBX 11 12 2 0
BITMAP
CF00
F9C0
E0C0
C060
C060
C060
C060
C060
C060
C060
C060
C060
ENDCHAR
STARTCHAR o
ENCODING 111
SWIDTH 627 0
DWIDTH 14 0
BBX 12 12 1 0
BITMAP
1F00
39C0
6060
C020
C030
C030
C030
C030
C020
6060
39C0
1F00
ENDCHAR
STARTCHAR p
ENCODING 112
SWIDTH 678 0
DWIDTH 15 0
BBX 12 16 2 -4
BITMAP
CF80
F9C0
E060
C020
C030
C030
C030
C030
C020
E060
F9C0
CF80
C000
C000
C000
C000
ENDCHAR
STARTCHAR q
ENCODING 113
SWIDTH 678 0
DWIDTH 15 0
BBX 12 16 1 -4
BITMAP
1F30
39B0
6070
C030
C030
C030
C030
C030
C030
6070
39F0
1F30
0030
0030
0030
0030
ENDCHAR
STARTCHAR r
ENCODING 114
SWIDTH 401 0
DWIDTH 9 0
BBX 6 12 2 0
BITMAP
DC
F8
E0
C0
C0
C0
C0
C0
C0
C0
C0
C0
ENDCHAR
STARTCHAR s
ENCODING 115
SWIDTH 489 0
DWIDTH 11 0
BBX 9 12 1 0
BITMAP
3E00
6380
C000
C000
C000
7800
1F00
0180
0180
8180
E300
7E00
ENDCHAR
STARTCHAR t
ENCODING 116
SWIDTH 388 0
DWIDTH 9 0
BBX 6 15 2 0
BITMAP
C0
C0
C0
F8
C0
C0
C0
C0
C0
C0
C0
C0
C0
EC
78
ENDCHAR
STARTCHAR u
ENCODING 117
SWIDTH 673 0
DWIDTH 15 0
BBX 11 12 2 0
BITMAP
C060
C060
C060
C060
C060
C060
C060
C060
C060
40E0
73E0
1E60
ENDCHAR
STARTCHAR v
ENCODING 118
SWIDTH 542 0
DWIDTH 12 0
BBX 12 12 0 0
BITMAP
C030
4020
6060
2040
30C0
30C0
1080
1980
0900
0F00
0E00
0600
ENDCHAR
STARTCHAR w
ENCODING 119
SWIDTH 1004 0
DWIDTH 22 0
BBX 18 12 2 0
BITMAP
C0C0C0
C0C0C0
C0C0C0
C0C0C0
C0C0C0
C0C0C0
C0C0C0
C0C0C0
C0C0C0
40E080
733380
3E1F00
ENDCHAR
STARTCHAR x
ENCODING 120
SWIDTH 534 0
DWIDTH 12 0
BBX 11 12 0 0
BITMAP
6060
20C0
3080
1900
0F00
0600
0600
0F00
1980
3080
20C0
E060
ENDCHAR
STARTCHAR y
ENCODING 121
SWIDTH 673 0
DWIDTH 15 0
BBX 11 16 2 -4
BITMAP
C060
C060
C060
C060
C060
C060
C060
C060
C060
40E0
73E0
1E60
0040
80C0
F380
3F00
ENDCHAR
STARTCHAR z
ENCODING 122
SWIDTH 521 0
DWIDTH 11 0
BBX 9 12 1 0
BITMAP
FF80
0180
0300
0200
0400
7F80
1800
3000
3000
6000
C000
FF80
ENDCHAR
STARTCHAR braceleft
ENCODING 123
SWIDTH 334 0
DWIDTH 7 0
BBX 6 21 1 -4
BITMAP
1C
38
30
30
30
30
30
30
30
30
E0
30
30
30
30
30
30
30
30
38
1C
ENDCHAR
STARTCHAR bar
ENCODING 124
SWIDTH 295 0
DWIDTH 6 0
BBX 1 21 3 -4
BITMAP
80
80
80
80
80
80
80
80
80
80
80
80
80
80
80
80
80
80
80
80
80
ENDCHAR
STARTCHAR braceright
ENCODING 125
SWIDTH 334 0
DWIDTH 7 0
BBX 6 21 0 -4
BITMAP
E0
30
10
10
10
10
10
10
10
10
0C
18
10
10
10
10
10
10
10
30
E0
ENDCHAR
STARTCHAR asciitilde
ENCODING 126
SWIDTH 575 0
DWIDTH 13 0
BBX 10 3 1 6
BITMAP
7840
4C40
C780
ENDCHAR
ENDFONT
